<svg width="800" height="800" viewBox="0 0 64 64" xmlns="http://www.w3.org/2000/svg" xmlns:xlink="http://www.w3.org/1999/xlink" overflow="hidden"><defs></defs><g id="Page-1" fill="none" fill-rule="evenodd"><g id="Button-circle-next" stroke="#6B6C6E" stroke-width="2" transform="translate(1 1)"><circle cx="31" cy="31" r="31" id="Oval" stroke="#FFFFFF"/><path d="M31 5C45.4 5 57 16.6 57 31" id="Shape" stroke="#FFFFFF"/><path d="M31 57C16.6 57 5 45.4 5 31" id="Shape" stroke="#FFFFFF"/><path d="M46.2 29.6 33.7 19.1C33.3 19.1 33 19.4 33 19.9L33 26.8 22.8 19.1C22.4 19.1 22.1 19.4 22.1 19.9L22.1 42.3C22.1 42.7 22.4 43.1 22.8 43.1L33 35.6 33 42.4C33 42.8 33.3 43.2 33.7 43.2L46.2 32.8C46.6 32.5 46.9 31.7 46.9 31.4 46.9 31.2 46.7 29.9 46.2 29.6L46.2 29.6Z" id="Shape" stroke="#FFFFFF"/></g></g></svg>