<svg width="800" height="800" viewBox="0 0 64 64" xmlns="http://www.w3.org/2000/svg" xmlns:xlink="http://www.w3.org/1999/xlink" overflow="hidden"><defs></defs><g id="Page-1" fill="none" fill-rule="evenodd"><g id="Button-circle-arrow-right" stroke="#6B6C6E" stroke-width="2" transform="translate(1 1)"><circle cx="31" cy="31" r="31" id="Oval" stroke="#FFFFFF"/><path d="M31 5C45.4 5 57 16.6 57 31" id="Shape" stroke="#FFFFFF"/><path d="M31 57C16.6 57 5 45.4 5 31" id="Shape" stroke="#FFFFFF"/><path d="M31 37 31 42.3C31 42.7 31.3 43 31.7 43L47.2 32.9C47.6 32.6 47.9 31.8 47.9 31.5L47.9 31.5C47.9 31.5 47.6 30.3 47.2 30L31.7 19.8C31.3 19.8 31 20.1 31 20.5L31 25.8" id="Shape" stroke="#FFFFFF"/><path d="M33.9 26.1 21 26.1" id="Shape" stroke="#FFFFFF"/><path d="M33.9 37.1 21 37.1" id="Shape" stroke="#FFFFFF"/></g></g></svg>