<svg width="800" height="800" viewBox="0 0 64 64" xmlns="http://www.w3.org/2000/svg" xmlns:xlink="http://www.w3.org/1999/xlink" overflow="hidden"><defs></defs><g id="Page-1" fill="none" fill-rule="evenodd"><g id="Button-circle-previous" stroke="#6B6C6E" stroke-width="2" transform="translate(1 1)"><circle cx="31" cy="31" r="31" id="Oval" stroke="#FFFFFF"/><path d="M31 5C45.4 5 57 16.6 57 31" id="Shape" stroke="#FFFFFF"/><path d="M31 57C16.6 57 5 45.4 5 31" id="Shape" stroke="#FFFFFF"/><path d="M17.7 29.6 30.2 19.1C30.6 19.1 30.9 19.4 30.9 19.9L30.9 26.8 41.1 19.1C41.5 19.1 41.8 19.4 41.8 19.9L41.8 42.3C41.8 42.7 41.5 43.1 41.1 43.1L30.9 35.6 30.9 42.4C30.9 42.8 30.6 43.2 30.2 43.2L17.7 32.8C17.3 32.5 17 31.7 17 31.4 17 31.2 17.3 29.9 17.7 29.6L17.7 29.6Z" id="Shape" stroke="#FFFFFF"/></g></g></svg>